<?xml version="1.0" encoding="UTF-8"?>
<svg width="22px" height="22px" viewBox="0 0 22 22" version="1.1" xmlns="http://www.w3.org/2000/svg" xmlns:xlink="http://www.w3.org/1999/xlink">
    <!-- Generator: Sketch 48.2 (47327) - http://www.bohemiancoding.com/sketch -->
    <title>Element/Icon/Grid - Black</title>
    <desc>Created with Sketch.</desc>
    <defs></defs>
    <g id="-" stroke="none" stroke-width="1" fill="none" fill-rule="evenodd" stroke-linecap="square">
        <g id="Element/Icon/Grid---Black" stroke="#444444">
            <g id="Group" transform="translate(4.000000, 4.000000)">
                <polygon id="Shape" points="0 0 2.54545455 0 2.54545455 2.54545455 0 2.54545455"></polygon>
                <polygon id="Shape" points="5.72727273 0 8.27272727 0 8.27272727 2.54545455 5.72727273 2.54545455"></polygon>
                <polygon id="Shape" points="11.4545455 0 14 0 14 2.54545455 11.4545455 2.54545455"></polygon>
                <polygon id="Shape" points="0 5.72727273 2.54545455 5.72727273 2.54545455 8.27272727 0 8.27272727"></polygon>
                <polygon id="Shape" points="5.72727273 5.72727273 8.27272727 5.72727273 8.27272727 8.27272727 5.72727273 8.27272727"></polygon>
                <polygon id="Shape" points="11.4545455 5.72727273 14 5.72727273 14 8.27272727 11.4545455 8.27272727"></polygon>
                <polygon id="Shape" points="0 11.4545455 2.54545455 11.4545455 2.54545455 14 0 14"></polygon>
                <polygon id="Shape" points="5.72727273 11.4545455 8.27272727 11.4545455 8.27272727 14 5.72727273 14"></polygon>
                <polygon id="Shape" points="11.4545455 11.4545455 14 11.4545455 14 14 11.4545455 14"></polygon>
            </g>
        </g>
    </g>
</svg>