<?xml version="1.0" encoding="UTF-8"?>
<svg width="22px" height="22px" viewBox="0 0 22 22" version="1.1" xmlns="http://www.w3.org/2000/svg" xmlns:xlink="http://www.w3.org/1999/xlink">
    <!-- Generator: Sketch 48.2 (47327) - http://www.bohemiancoding.com/sketch -->
    <title>Element/Icon/Grid - Gray</title>
    <desc>Created with Sketch.</desc>
    <defs></defs>
    <g id="-" stroke="none" stroke-width="1" fill="none" fill-rule="evenodd" stroke-linecap="square">
        <g id="Element/Icon/Grid---Gray" stroke="#9B9B9B">
            <polygon id="Shape" points="4 4 6.54545455 4 6.54545455 6.54545455 4 6.54545455"></polygon>
            <polygon id="Shape" points="9.72727273 4 12.2727273 4 12.2727273 6.54545455 9.72727273 6.54545455"></polygon>
            <polygon id="Shape" points="15.4545455 4 18 4 18 6.54545455 15.4545455 6.54545455"></polygon>
            <polygon id="Shape" points="4 9.72727273 6.54545455 9.72727273 6.54545455 12.2727273 4 12.2727273"></polygon>
            <polygon id="Shape" points="9.72727273 9.72727273 12.2727273 9.72727273 12.2727273 12.2727273 9.72727273 12.2727273"></polygon>
            <polygon id="Shape" points="15.4545455 9.72727273 18 9.72727273 18 12.2727273 15.4545455 12.2727273"></polygon>
            <polygon id="Shape" points="4 15.4545455 6.54545455 15.4545455 6.54545455 18 4 18"></polygon>
            <polygon id="Shape" points="9.72727273 15.4545455 12.2727273 15.4545455 12.2727273 18 9.72727273 18"></polygon>
            <polygon id="Shape" points="15.4545455 15.4545455 18 15.4545455 18 18 15.4545455 18"></polygon>
        </g>
    </g>
</svg>