<?xml version="1.0" encoding="UTF-8"?>
<svg width="22px" height="22px" viewBox="0 0 22 22" version="1.1" xmlns="http://www.w3.org/2000/svg" xmlns:xlink="http://www.w3.org/1999/xlink">
    <!-- Generator: Sketch 48.2 (47327) - http://www.bohemiancoding.com/sketch -->
    <title>Element/Icon/hyperlink-White</title>
    <desc>Created with Sketch.</desc>
    <defs></defs>
    <g id="-" stroke="none" stroke-width="1" fill="none" fill-rule="evenodd">
        <g id="Element/Icon/hyperlink-White" fill="#FFFFFF">
            <g id="noun_120079_cc" transform="translate(4.100000, 5.260000)">
                <path d="M4.68215774,9.44780725 C4.8581674,9.27149672 5.14399505,9.27119585 5.32030558,9.44750638 C5.4966161,9.6238169 5.4966161,9.90934368 5.32030558,10.0856542 L4.47576009,10.9305006 C3.96457991,11.4413799 3.29333625,11.6971204 2.62209258,11.6971204 C1.95054804,11.6971204 1.27930438,11.4413799 0.768124195,10.9301997 C0.272890186,10.4352666 0,9.77665948 0,9.07653218 C0,8.376104 0.272890186,7.7177978 0.768124195,7.22256379 L5.0723877,2.91860116 C6.09444719,1.89624079 7.75796411,1.89684253 8.78032447,2.91860116 C9.80208309,3.94096152 9.80208309,5.60447843 8.78032447,6.62653793 L7.93547812,7.47168515 C7.84732285,7.55984041 7.73178831,7.60376761 7.61625377,7.60376761 C7.50071922,7.60376761 7.38518468,7.55984041 7.29702941,7.47168515 C7.12101976,7.29567549 7.12101976,7.00984785 7.29702941,6.83353732 L8.14187577,5.98839009 C8.81191595,5.31804904 8.81191595,4.22739091 8.14187577,3.55704986 C7.47123384,2.88670881 6.38057571,2.88700968 5.71023466,3.55704986 L1.40627203,7.86101249 C1.08163199,8.18565253 0.902613625,8.61740271 0.902613625,9.07683305 C0.902613625,9.53596251 1.08163199,9.96771269 1.40627203,10.2923527 C2.07661308,10.9629947 3.16727121,10.9626938 3.83761226,10.2926536 L4.68215774,9.44780725 Z M14.0013425,0.766770274 C15.0237029,1.78943151 15.023402,3.45264755 14.0013425,4.47440617 C14.0013425,4.47470705 14.0010417,4.47470705 14.0007408,4.47470705 L9.69707904,8.77776707 C9.20214591,9.27330195 8.5438397,9.54589126 7.8437124,9.54619213 C7.84341153,9.54619213 7.84311066,9.54619213 7.84311066,9.54619213 C7.14268248,9.54619213 6.48467715,9.27330195 5.98944314,8.77806794 C4.96738365,7.75630931 4.96738365,6.09309327 5.98914227,5.07103378 C5.98944314,5.07073291 5.98944314,5.07043204 5.98944314,5.07043204 L6.83398862,4.22558568 C7.01029915,4.04957603 7.2961268,4.04957603 7.47243733,4.22558568 C7.64844699,4.40189621 7.64874786,4.68772386 7.47243733,4.86403439 L6.62789185,5.70888074 C6.62759098,5.70918161 6.62759098,5.70918161 6.62759098,5.70918161 C5.95724992,6.37922179 5.95724992,7.46987992 6.62759098,8.14022098 C6.95223101,8.46486101 7.38368032,8.64387938 7.84280979,8.64387938 L7.84311066,8.64387938 C8.30224012,8.64357851 8.73399031,8.46456014 9.05863034,8.1399201 L13.3628938,3.83655921 C13.3628938,3.83655921 13.3631947,3.83625834 13.3631947,3.83625834 C14.0338366,3.16621816 14.0338366,2.07556003 13.3634956,1.40491811 C12.6928537,0.734276184 11.6021955,0.734577055 10.9318545,1.40491811 L10.0870081,2.24976446 C9.99885286,2.33791972 9.88331832,2.38184692 9.76778378,2.38184692 C9.65224923,2.38184692 9.53671469,2.33791972 9.44855942,2.24976446 C9.2722489,2.0737548 9.2722489,1.78792716 9.44855942,1.61161663 L10.2934058,0.766770274 C11.3157661,-0.255590091 12.9789822,-0.255590091 14.0013425,0.766770274 Z" id="Path"></path>
            </g>
        </g>
    </g>
</svg>