<?xml version="1.0" encoding="UTF-8"?>
<svg width="22px" height="22px" viewBox="0 0 22 22" version="1.1" xmlns="http://www.w3.org/2000/svg" xmlns:xlink="http://www.w3.org/1999/xlink">
    <!-- Generator: Sketch 48.2 (47327) - http://www.bohemiancoding.com/sketch -->
    <title>Element/Icon/profile</title>
    <desc>Created with Sketch.</desc>
    <defs></defs>
    <g id="-" stroke="none" stroke-width="1" fill="none" fill-rule="evenodd" stroke-linecap="round" stroke-linejoin="round">
        <g id="Element/Icon/profile" stroke="#444444" stroke-width="0.8">
            <g id="settings-gear-65" transform="translate(2.000000, 2.000000)">
                <circle id="Oval" cx="9" cy="9" r="2.32258065"></circle>
                <path d="M17.7096774,9 C17.7096774,8.35896774 17.19,7.83870968 16.5483871,7.83870968 L15.2767742,7.83870968 C15.1112903,6.93987097 14.7605806,6.10606452 14.2612258,5.38141935 L15.1589032,4.48374194 C15.6123871,4.03025806 15.6123871,3.29516129 15.1589032,2.84167742 C14.7054194,2.38819355 13.9703226,2.38819355 13.5168387,2.84167742 L12.6185806,3.73935484 C11.8939355,3.23941935 11.060129,2.88870968 10.1612903,2.72322581 L10.1612903,1.4516129 C10.1612903,0.810580645 9.6416129,0.290322581 9,0.290322581 C8.3583871,0.290322581 7.83870968,0.81 7.83870968,1.4516129 L7.83870968,2.72322581 C6.93987097,2.88870968 6.10606452,3.23941935 5.38141935,3.73877419 L4.48374194,2.84109677 C4.03025806,2.3876129 3.29516129,2.3876129 2.84167742,2.84109677 C2.38819355,3.29458065 2.38819355,4.02967742 2.84167742,4.48316129 L3.73935484,5.38141935 C3.23941935,6.10606452 2.88870968,6.93987097 2.72322581,7.83870968 L1.4516129,7.83870968 C0.810580645,7.83870968 0.290322581,8.3583871 0.290322581,9 C0.290322581,9.6416129 0.81,10.1612903 1.4516129,10.1612903 L2.72322581,10.1612903 C2.88870968,11.060129 3.23941935,11.8939355 3.73877419,12.6185806 L2.84109677,13.5162581 C2.3876129,13.9697419 2.3876129,14.7048387 2.84109677,15.1583226 C3.29458065,15.6118065 4.02967742,15.6118065 4.48316129,15.1583226 L5.38083871,14.2606452 C6.10548387,14.76 6.93870968,15.1107097 7.83812903,15.2761935 L7.83812903,16.5483871 C7.83812903,17.19 8.35780645,17.7096774 8.99941935,17.7096774 C9.64045161,17.7096774 10.1607097,17.19 10.1607097,16.5483871 L10.1607097,15.2767742 C11.0595484,15.1112903 11.8933548,14.7605806 12.618,14.2612258 L13.5156774,15.1589032 C13.9691613,15.6123871 14.7042581,15.6123871 15.1577419,15.1589032 C15.6112258,14.7054194 15.6112258,13.9703226 15.1577419,13.5168387 L14.2600645,12.6191613 C14.7594194,11.8945161 15.110129,11.0612903 15.2756129,10.161871 L16.5483871,10.161871 C17.19,10.1612903 17.7096774,9.6416129 17.7096774,9 Z" id="Shape"></path>
            </g>
        </g>
    </g>
</svg>