<?xml version="1.0" encoding="UTF-8"?>
<svg width="22px" height="22px" viewBox="0 0 22 22" version="1.1" xmlns="http://www.w3.org/2000/svg" xmlns:xlink="http://www.w3.org/1999/xlink">
    <!-- Generator: Sketch 48.2 (47327) - http://www.bohemiancoding.com/sketch -->
    <title>Element/Icon/Share-White</title>
    <desc>Created with Sketch.</desc>
    <defs></defs>
    <g id="-" stroke="none" stroke-width="1" fill="none" fill-rule="evenodd">
        <g id="Element/Icon/Share-White" fill="#FFFFFF" fill-rule="nonzero">
            <g id="curved-next" transform="translate(6.000000, 7.000000)">
                <path d="M5.91304908,0.0406042782 C5.86562985,-0.00184496158 5.7977268,-0.0118042063 5.73998501,0.0144816691 C5.68224323,0.0409308108 5.64514655,0.099053616 5.64514655,0.163217275 L5.64514655,2.28649559 C3.17337881,2.31229167 0,2.96780589 0,7.83673369 C0,7.91216273 0.0509676089,7.97763252 0.123386775,7.99542854 C0.135967387,7.9985306 0.148709289,8 0.161289901,8 C0.220644585,8 0.276612181,7.96669367 0.304676624,7.91150966 C1.08902941,6.36945939 2.13870409,5.57484228 5.64514655,5.5514952 L5.64514655,7.67346739 C5.64514655,7.73877391 5.68369484,7.79803958 5.74321081,7.82367239 C5.80256549,7.84897867 5.87143628,7.83640716 5.91804906,7.79134566 L9.9502966,3.8729543 C9.98287716,3.84128063 10.0007803,3.79719873 9.99997389,3.75164743 C9.99900615,3.70593287 9.97916749,3.66283056 9.94529661,3.63262629 L5.91304908,0.0406042782 Z" id="Shape"></path>
            </g>
        </g>
    </g>
</svg>